# xmcd
#
# Track frame offsets: 
#        150
#        17842
#        35665
#        48077
#        61121
#        77481
#        88909
#        92754
#        107728
#        118888
#        134808
#        151422
#        174261
#
# Disc length: 2593 seconds
#
# Revision: 0
# Processed by: cddbd v1.5.2PL0 Copyright (c) Steve Scherf et al.
# Submitted via: ExactAudioCopy v0.99pb5
#
DISCID=a60a1f0d
DTITLE=Little Hurricane - Homewrecker
DYEAR=2011
DGENRE=Blues
TTITLE0=Crocodile Tears
TTITLE1=Trouble Ahead
TTITLE2=Haunted Heart
TTITLE3=Fourth Of July
TTITLE4=Shortbread
TTITLE5=Get By
TTITLE6=Hold Me Back
TTITLE7=Lies
TTITLE8=Sun Sets West
TTITLE9=Sweet Pea
TTITLE10=Tear Bucket
TTITLE11=Homewrecker
TTITLE12=Give Em Hell
EXTD=
EXTT0=
EXTT1=
EXTT2=
EXTT3=
EXTT4=
EXTT5=
EXTT6=
EXTT7=
EXTT8=
EXTT9=
EXTT10=
EXTT11=
EXTT12=
PLAYORDER=
